<svg width="17" height="14" viewBox="0 0 17 14" fill="none" xmlns="http://www.w3.org/2000/svg">
<path d="M14.1558 0.75H14.1555L2.8445 0.75L2.84423 0.75C2.28899 0.750601 1.75666 0.971436 1.36405 1.36405C0.971436 1.75666 0.750601 2.28899 0.75 2.84423V2.8445L0.75 11.1555L0.75 11.1558C0.750601 11.711 0.971436 12.2433 1.36405 12.636C1.75666 13.0286 2.28899 13.2494 2.84423 13.25H2.8445H14.1555H14.1558C14.711 13.2494 15.2433 13.0286 15.636 12.636C16.0286 12.2433 16.2494 11.711 16.25 11.1558V11.1555V2.8445V2.84423C16.2494 2.28899 16.0286 1.75666 15.636 1.36405C15.2433 0.971436 14.711 0.750601 14.1558 0.75ZM2.8448 2.25H14.1552C14.1552 2.25 14.1553 2.25 14.1553 2.25C14.313 2.25021 14.4641 2.31293 14.5756 2.42442C14.6871 2.53592 14.7498 2.6871 14.75 2.8448V3.09051L8.5 7.1083L2.25 3.09051L2.25 2.8448C2.25 2.84476 2.25 2.84473 2.25 2.8447C2.25021 2.68704 2.31293 2.5359 2.42442 2.42442C2.5359 2.31293 2.68704 2.25021 2.8447 2.25C2.84473 2.25 2.84476 2.25 2.8448 2.25ZM2.42442 11.5756C2.31293 11.4641 2.25021 11.313 2.25 11.1553C2.25 11.1553 2.25 11.1552 2.25 11.1552L2.25 4.87391L8.09425 8.63076C8.09427 8.63077 8.09429 8.63078 8.09431 8.6308C8.21531 8.70861 8.35614 8.74999 8.5 8.74999C8.64386 8.74999 8.78469 8.70861 8.90569 8.6308C8.90571 8.63078 8.90573 8.63077 8.90575 8.63076L14.75 4.87391V11.1552C14.7498 11.3129 14.6871 11.4641 14.5756 11.5756C14.4641 11.6871 14.3129 11.7498 14.1552 11.75H2.8448C2.6871 11.7498 2.53592 11.6871 2.42442 11.5756Z" fill="#393939" stroke="#393939" stroke-width="0.5"/>
</svg>
