<svg width="65" height="64" viewBox="0 0 65 64" fill="none" xmlns="http://www.w3.org/2000/svg">
<g filter="url(#filter0_d_119_926)">
<path d="M32.5001 15C23.3874 15 16 22.1935 16 31.067C16 39.0254 21.9486 45.6164 29.7482 46.8927V34.419H25.7679V29.9302H29.7482V26.6204C29.7482 22.78 32.157 20.6872 35.6758 20.6872C37.361 20.6872 38.8093 20.8095 39.2297 20.8634V24.8776L36.7892 24.8787C34.876 24.8787 34.5072 25.7638 34.5072 27.0631V29.9279H39.0723L38.4769 34.4167H34.5072V47C42.6709 46.0325 49 39.2736 49 31.0624C49 22.1935 41.6126 15 32.5001 15Z" fill="white"/>
</g>
<defs>
<filter id="filter0_d_119_926" x="0" y="0" width="65" height="64" filterUnits="userSpaceOnUse" color-interpolation-filters="sRGB">
<feFlood flood-opacity="0" result="BackgroundImageFix"/>
<feColorMatrix in="SourceAlpha" type="matrix" values="0 0 0 0 0 0 0 0 0 0 0 0 0 0 0 0 0 0 127 0" result="hardAlpha"/>
<feOffset dy="1"/>
<feGaussianBlur stdDeviation="8"/>
<feColorMatrix type="matrix" values="0 0 0 0 0.924238 0 0 0 0 0.9125 0 0 0 0 1 0 0 0 0.5 0"/>
<feBlend mode="normal" in2="BackgroundImageFix" result="effect1_dropShadow_119_926"/>
<feBlend mode="normal" in="SourceGraphic" in2="effect1_dropShadow_119_926" result="shape"/>
</filter>
</defs>
</svg>
