<svg width="30" height="29" viewBox="0 0 30 29" fill="none" xmlns="http://www.w3.org/2000/svg">
<path d="M3.88434 18.2424C4.00893 18.2424 4.12906 18.2467 4.24475 18.2553C4.36933 18.2638 4.48946 18.2767 4.60515 18.2938V20.3893C4.42717 20.3465 4.28479 20.3251 4.178 20.3251C3.88434 20.3251 3.63518 20.4065 3.4305 20.5693C3.22583 20.7236 3.12349 20.9379 3.12349 21.2121C3.12349 21.4178 3.19913 21.6192 3.35041 21.8163C3.51059 22.0049 3.74641 22.0992 4.05787 22.0992H5.81984L6.59404 20.4279H8.59628V22.0992H9.75758V24.0918H8.59628V28H3.95108C3.37266 28 2.83873 27.9529 2.34929 27.8586C1.86876 27.7557 1.45496 27.5929 1.10791 27.3701C0.760851 27.1472 0.489436 26.8601 0.293662 26.5087C0.0978872 26.1573 0 25.7331 0 25.236C0 24.079 0.596222 23.329 1.78867 22.9862C1.30813 22.8405 0.938827 22.5834 0.680761 22.2149C0.422695 21.8463 0.293662 21.4092 0.293662 20.9036C0.293662 20.4408 0.400448 20.0422 0.61402 19.708C0.836491 19.3737 1.12125 19.0995 1.46831 18.8852C1.81536 18.6624 2.19801 18.4995 2.61626 18.3967C3.0434 18.2938 3.4661 18.2424 3.88434 18.2424ZM5.71305 24.0918H4.05787C3.8532 24.0918 3.67522 24.1218 3.52394 24.1818C3.38156 24.2418 3.26142 24.3189 3.16354 24.4132C3.06565 24.4989 2.99446 24.6018 2.94996 24.7218C2.90547 24.8332 2.88322 24.9446 2.88322 25.056C2.88322 25.3817 3.00336 25.6345 3.24363 25.8145C3.4839 25.9859 3.77756 26.0716 4.12461 26.0716H5.71305V24.0918Z" fill="url(#paint0_linear_119_951)"/>
<path d="M0.848547 -2.17693e-06L0.848546 7.31818L6.4979 7.31818L6.49789 19.5151L14.2901 19.5151L14.2901 7.31818L19.9395 7.31818L19.9395 0L0.848547 -2.17693e-06Z" fill="url(#paint1_linear_119_951)"/>
<path d="M10.5304 27.1515L10.5304 27.6515L11.0304 27.6515L28.4243 27.6515L28.9243 27.6515L28.9243 27.1515L28.9243 21.5534L28.9243 21.0534L28.4243 21.0534L23.7771 21.0534L23.7771 9.33334L23.7771 8.83334L23.2771 8.83334L16.1776 8.83333L15.6776 8.83333L15.6776 9.33333L15.6776 21.0534L11.0304 21.0534L10.5304 21.0534L10.5304 21.5534L10.5304 27.1515Z" stroke="url(#paint2_linear_119_951)"/>
<defs>
<linearGradient id="paint0_linear_119_951" x1="1.69697" y1="23.3333" x2="9.75758" y2="23.3333" gradientUnits="userSpaceOnUse">
<stop stop-color="#393939"/>
<stop offset="1" stop-color="#393939" stop-opacity="0"/>
</linearGradient>
<linearGradient id="paint1_linear_119_951" x1="0.848544" y1="6.36363" x2="23.9698" y2="5.51515" gradientUnits="userSpaceOnUse">
<stop stop-color="#393939"/>
<stop offset="0.916216" stop-color="#393939" stop-opacity="0"/>
</linearGradient>
<linearGradient id="paint2_linear_119_951" x1="9.96977" y1="21.4242" x2="30.5455" y2="21.2121" gradientUnits="userSpaceOnUse">
<stop stop-color="#393939"/>
<stop offset="1" stop-color="#393939" stop-opacity="0"/>
</linearGradient>
</defs>
</svg>
