<svg width="68" height="66" viewBox="0 0 68 66" fill="none" xmlns="http://www.w3.org/2000/svg">
<path d="M9.15595 43C9.44961 43 9.73279 43.0101 10.0055 43.0303C10.2991 43.0505 10.5823 43.0808 10.855 43.1212V48.0606C10.4355 47.9596 10.0999 47.9091 9.84815 47.9091C9.15595 47.9091 8.56863 48.101 8.08618 48.4848C7.60374 48.8485 7.36252 49.3535 7.36252 50C7.36252 50.4848 7.54081 50.9596 7.8974 51.4242C8.27497 51.8687 8.83083 52.0909 9.56498 52.0909H13.7182L15.5431 48.1515H20.2627V52.0909H23V56.7879H20.2627V66H9.31327C7.94984 66 6.69129 65.8889 5.53762 65.6667C4.40492 65.4242 3.42955 65.0404 2.61149 64.5152C1.79343 63.9899 1.15367 63.3131 0.692203 62.4848C0.230734 61.6566 0 60.6566 0 59.4848C0 56.7576 1.40538 54.9899 4.21614 54.1818C3.08345 53.8384 2.21295 53.2323 1.60465 52.3636C0.996352 51.495 0.692203 50.4646 0.692203 49.2727C0.692203 48.1818 0.943913 47.2424 1.44733 46.4545C1.97173 45.6667 2.64295 45.0202 3.46101 44.5152C4.27907 43.9899 5.18103 43.6061 6.16689 43.3636C7.17373 43.1212 8.17009 43 9.15595 43ZM13.4665 56.7879H9.56498C9.08254 56.7879 8.66302 56.8586 8.30643 57C7.97082 57.1414 7.68764 57.3232 7.45691 57.5455C7.22617 57.7475 7.05837 57.9899 6.95349 58.2727C6.84861 58.5354 6.79617 58.798 6.79617 59.0606C6.79617 59.8283 7.07934 60.4242 7.64569 60.8485C8.21204 61.2525 8.90424 61.4545 9.7223 61.4545H13.4665V56.7879Z" fill="url(#paint0_linear_119_931)"/>
<path d="M2 -5.13134e-06L2 17.25L15.3163 17.25L15.3163 46L33.6837 46L33.6837 17.25L47 17.25L47 0L2 -5.13134e-06Z" fill="url(#paint1_linear_119_931)"/>
<path d="M25.5 64L25.5 64.5L26 64.5L67 64.5L67.5 64.5L67.5 64L67.5 50.8044L67.5 50.3044L67 50.3044L55.3673 50.3044L55.3674 22L55.3674 21.5L54.8674 21.5L38.1327 21.5L37.6327 21.5L37.6327 22L37.6327 50.3044L26 50.3044L25.5 50.3044L25.5 50.8044L25.5 64Z" stroke="url(#paint2_linear_119_931)"/>
<defs>
<linearGradient id="paint0_linear_119_931" x1="-0.975562" y1="49.7964" x2="22.8363" y2="56.0207" gradientUnits="userSpaceOnUse">
<stop stop-color="#CBCBCB"/>
<stop offset="0.666667" stop-color="#E2FDFF"/>
</linearGradient>
<linearGradient id="paint1_linear_119_931" x1="47.4588" y1="17.4987" x2="2.63344" y2="26.2635" gradientUnits="userSpaceOnUse">
<stop stop-color="#CBCBCB"/>
<stop offset="0.666667" stop-color="#E2FDFF"/>
</linearGradient>
<linearGradient id="paint2_linear_119_931" x1="46.5" y1="64" x2="46.5" y2="12.4546" gradientUnits="userSpaceOnUse">
<stop stop-color="#E2FDFF"/>
<stop offset="1" stop-color="#CBCBCB"/>
</linearGradient>
</defs>
</svg>
