<svg width="14" height="18" viewBox="0 0 14 18" fill="none" xmlns="http://www.w3.org/2000/svg">
<path d="M7 0.75C4.36193 0.75 2.25 2.86193 2.25 5.5V7.26662C1.3863 7.38296 0.75 8.09705 0.75 9V15.5C0.75 16.4881 1.51193 17.25 2.5 17.25H11.5C12.4881 17.25 13.25 16.4881 13.25 15.5V9C13.25 8.09705 12.6137 7.38296 11.75 7.26662V5.5C11.75 2.86193 9.63807 0.75 7 0.75ZM11.75 9V15.5C11.75 15.5932 11.72 15.6514 11.6857 15.6857C11.6514 15.72 11.5932 15.75 11.5 15.75H2.5C2.40681 15.75 2.34858 15.72 2.31428 15.6857C2.27997 15.6514 2.25 15.5932 2.25 15.5V9C2.25 8.90681 2.27997 8.84858 2.31428 8.81428C2.34858 8.77997 2.40681 8.75 2.5 8.75H3H11H11.5C11.5932 8.75 11.6514 8.77997 11.6857 8.81428C11.72 8.84858 11.75 8.90681 11.75 9ZM3.75 7.25V5.5C3.75 3.68807 5.18807 2.25 7 2.25C8.81193 2.25 10.25 3.68807 10.25 5.5V7.25H3.75Z" fill="#393939" stroke="#393939" stroke-width="0.5"/>
</svg>
