<svg width="24" height="24" viewBox="0 0 24 24" fill="none" xmlns="http://www.w3.org/2000/svg">
<path d="M14.965 14.755H15.5476L20.0383 19.2547L19.2547 20.0383L14.755 15.5476V14.965V14.7632L14.6149 14.6179L14.5336 14.5336L14.6179 14.6149L14.7632 14.755H14.965ZM14.0069 14.0069L13.6591 14.3058C12.6062 15.211 11.2407 15.755 9.755 15.755C6.44115 15.755 3.755 13.0689 3.755 9.755C3.755 6.44115 6.44115 3.755 9.755 3.755C13.0689 3.755 15.755 6.44115 15.755 9.755C15.755 11.2407 15.211 12.6062 14.3058 13.6591L14.0069 14.0069ZM4.755 9.755C4.755 12.5211 6.98886 14.755 9.755 14.755C12.5211 14.755 14.755 12.5211 14.755 9.755C14.755 6.98886 12.5211 4.755 9.755 4.755C6.98886 4.755 4.755 6.98886 4.755 9.755Z" fill="white" stroke="white"/>
</svg>
