<svg width="34" height="34" viewBox="0 0 34 34" fill="none" xmlns="http://www.w3.org/2000/svg">
<path d="M26.9167 7.08333H24.0833V4.25H9.91667V7.08333H7.08333C5.525 7.08333 4.25 8.35833 4.25 9.91667V11.3333C4.25 14.9458 6.97 17.8925 10.4692 18.3317C11.3617 20.4567 13.2742 22.0575 15.5833 22.525V26.9167H9.91667V29.75H24.0833V26.9167H18.4167V22.525C20.7258 22.0575 22.6383 20.4567 23.5308 18.3317C27.03 17.8925 29.75 14.9458 29.75 11.3333V9.91667C29.75 8.35833 28.475 7.08333 26.9167 7.08333ZM7.08333 11.3333V9.91667H9.91667V15.3283C8.27333 14.7333 7.08333 13.175 7.08333 11.3333ZM26.9167 11.3333C26.9167 13.175 25.7267 14.7333 24.0833 15.3283V9.91667H26.9167V11.3333Z" fill="white"/>
</svg>
